<?xml version="1.0" encoding="UTF-8"?>
<svg version="1.1" viewBox="0 0 288 288" xmlns="http://www.w3.org/2000/svg">
<svg width="288" height="288" viewBox="0 0 24 24" xmlns="http://www.w3.org/2000/svg">
<path class="color200E32 svgShape" transform="translate(3 2)" d="m12.853-1.954e-14c3.2134 0 5.1379 1.9514 5.1466 5.2097v9.5806c0 3.2583-1.9158 5.2097-5.1379 5.2097h-2.8563c-0.36631-0.040955-0.64357-0.3548-0.64357-0.72848 0-0.37368 0.27726-0.68752 0.64357-0.72848h2.8476c2.4557 0 3.6923-1.2627 3.6923-3.7528v-9.5806c0-2.4901-1.2366-3.7528-3.6923-3.7528h-7.7155c-2.4557 0-3.701 1.2627-3.701 3.7528v9.5806c0 2.4901 1.2453 3.7528 3.701 3.7528 0.36631 0.040955 0.64357 0.3548 0.64357 0.72848 0 0.37368-0.27726 0.68752-0.64357 0.72848-3.2134 0-5.1379-1.9514-5.1379-5.2097v-9.5806c0-3.2671 1.9245-5.2097 5.1379-5.2097zm-0.26125 13.51c0.39437 0 0.71408 0.32417 0.71408 0.72406s-0.3197 0.72406-0.71408 0.72406h-7.2104c-0.39437 0-0.71408-0.32417-0.71408-0.72406s0.3197-0.72406 0.71408-0.72406zm0-4.2384c0.27556-0.030809 0.54421 0.10091 0.69152 0.33905s0.14731 0.54072 0 0.77886c-0.14731 0.23814-0.41596 0.36986-0.69152 0.33905h-7.2104c-0.36631-0.040955-0.64357-0.3548-0.64357-0.72848 0-0.37368 0.27726-0.68752 0.64357-0.72848zm-4.4586-4.2296c0.36631 0.040955 0.64357 0.3548 0.64357 0.72848 0 0.37368-0.27726 0.68752-0.64357 0.72848h-2.7431c-0.36631-0.040955-0.64357-0.3548-0.64357-0.72848 0-0.37368 0.27726-0.68752 0.64357-0.72848z" fill="#605de0"/>
</svg>
</svg>
